<svg width="24" height="24" viewBox="0 0 24 24" fill="none" xmlns="http://www.w3.org/2000/svg">
<path d="M24 0H0V24H24V0Z" fill="#FFFDF8"/>
<path d="M15.94 8.978C16.04 8.978 16.14 8.97799 16.233 8.98399C15.614 6.14799 12.69 4 9.177 4C5.213 4 2 6.734 2 10.106C2.0243 11.0825 2.29339 12.0373 2.78261 12.8827C3.27182 13.7282 3.96549 14.4373 4.8 14.945L4.083 17.06L6.458 15.76C7.33282 16.0627 8.2523 16.2162 9.178 16.214C9.36333 16.214 9.54733 16.208 9.73 16.196C9.52537 15.6571 9.42033 15.0855 9.42 14.509C9.419 11.453 12.339 8.978 15.94 8.978ZM11.654 7.019C11.8636 7.019 12.0686 7.08117 12.2429 7.19765C12.4172 7.31412 12.5531 7.47967 12.6333 7.67336C12.7135 7.86704 12.7345 8.08018 12.6936 8.2858C12.6527 8.49142 12.5518 8.68029 12.4035 8.82854C12.2553 8.97678 12.0664 9.07774 11.8608 9.11864C11.6552 9.15954 11.442 9.13853 11.2484 9.0583C11.0547 8.97808 10.8891 8.84222 10.7726 8.66791C10.6562 8.49359 10.594 8.28864 10.594 8.07899C10.5939 7.93971 10.6212 7.80177 10.6744 7.67305C10.7276 7.54433 10.8057 7.42735 10.9041 7.32881C11.0026 7.23028 11.1195 7.15212 11.2481 7.09879C11.3768 7.04545 11.5147 7.01799 11.654 7.01799V7.019ZM6.723 9.13899C6.51335 9.13899 6.30841 9.07683 6.13409 8.96036C5.95978 8.84388 5.82392 8.67832 5.74369 8.48463C5.66346 8.29094 5.64247 8.07783 5.68337 7.87221C5.72427 7.66659 5.82522 7.47771 5.97346 7.32947C6.12171 7.18122 6.31059 7.08027 6.5162 7.03937C6.72182 6.99847 6.93495 7.01946 7.12864 7.09969C7.32233 7.17991 7.48788 7.31578 7.60436 7.4901C7.72083 7.66441 7.783 7.86935 7.783 8.07899C7.78274 8.35978 7.67108 8.62899 7.47253 8.82753C7.27399 9.02607 7.00478 9.13774 6.724 9.138L6.723 9.13899Z" fill="black"/>
<path d="M22 14.5051C22 11.6671 19.287 9.36707 15.94 9.36707C12.593 9.36707 9.88 11.6671 9.88 14.5051C9.88 17.3431 12.593 19.6431 15.94 19.6431C16.6171 19.6438 17.2907 19.5468 17.94 19.3551L20.012 20.4911L19.412 18.7151C20.1739 18.3009 20.8138 17.6942 21.2679 16.9555C21.722 16.2167 21.9745 15.3718 22 14.5051ZM14.047 13.7681C13.8791 13.7681 13.7149 13.7183 13.5753 13.625C13.4357 13.5317 13.3269 13.3991 13.2626 13.244C13.1984 13.0888 13.1815 12.9181 13.2143 12.7534C13.2471 12.5887 13.3279 12.4375 13.4467 12.3187C13.5654 12.2 13.7167 12.1191 13.8814 12.0864C14.0461 12.0536 14.2168 12.0704 14.3719 12.1347C14.527 12.1989 14.6596 12.3078 14.7529 12.4474C14.8462 12.587 14.896 12.7512 14.896 12.9191C14.8963 13.0307 14.8745 13.1413 14.8319 13.2446C14.7894 13.3478 14.7269 13.4416 14.648 13.5207C14.5692 13.5997 14.4755 13.6624 14.3723 13.7052C14.2692 13.748 14.1587 13.7701 14.047 13.7701V13.7681ZM17.995 13.7681C17.8271 13.7681 17.6629 13.7183 17.5233 13.625C17.3837 13.5317 17.2749 13.3991 17.2106 13.244C17.1464 13.0888 17.1296 12.9181 17.1623 12.7534C17.1951 12.5887 17.2759 12.4375 17.3947 12.3187C17.5134 12.2 17.6647 12.1191 17.8294 12.0864C17.9941 12.0536 18.1648 12.0704 18.3199 12.1347C18.475 12.1989 18.6076 12.3078 18.7009 12.4474C18.7942 12.587 18.844 12.7512 18.844 12.9191C18.8443 13.0307 18.8225 13.1413 18.7799 13.2446C18.7374 13.3478 18.6749 13.4416 18.596 13.5207C18.5172 13.5997 18.4235 13.6624 18.3203 13.7052C18.2172 13.748 18.1067 13.7701 17.995 13.7701V13.7681Z" fill="black"/>
</svg>
