<svg width="300" height="212" viewBox="0 0 300 212" fill="none" xmlns="http://www.w3.org/2000/svg">
<path d="M35.264 127.008C32.96 127.947 30.2507 128.416 27.136 128.416C23.2533 128.416 19.4987 127.733 15.872 126.368C12.2453 125.003 9.664 123.211 8.128 120.992C6.976 119.371 6.08 117.963 5.44 116.768C5.22667 116.341 5.12 115.936 5.12 115.552C5.12 115.04 5.26933 114.571 5.568 114.144V114.208L5.632 114.144C5.71733 114.016 5.76 113.803 5.76 113.504C5.80267 113.205 5.824 112.949 5.824 112.736V112.672C5.90933 112.373 5.99467 112.011 6.08 111.584L7.232 112.544L7.296 113.056L7.424 112.864L8.384 113.376C8.512 114.059 8.55467 114.507 8.512 114.72C8.42667 115.275 8.448 115.808 8.576 116.32C8.704 116.832 8.87467 117.323 9.088 117.792C9.30133 118.219 9.42933 118.517 9.472 118.688L9.728 118.816H9.664C9.664 118.944 9.83467 119.072 10.176 119.2L10.304 119.264C10.7733 119.605 11.2853 119.883 11.84 120.096C12.4373 120.267 13.1627 120.459 14.016 120.672H13.952C14.2507 120.715 14.592 120.8 14.976 120.928C15.36 121.056 15.7013 121.163 16 121.248C17.92 121.589 19.4987 121.76 20.736 121.76C21.632 121.76 22.656 121.653 23.808 121.44C24.1067 121.355 24.64 121.269 25.408 121.184C26.6453 121.013 27.4773 120.864 27.904 120.736H27.968C28.4373 120.651 29.7387 120.224 31.872 119.456C34.0053 118.645 35.3067 118.112 35.776 117.856C35.904 117.813 36.1813 117.643 36.608 117.344L36.544 117.408L37.824 116.32C38.592 115.723 39.1893 115.211 39.616 114.784C40.0427 114.315 40.384 113.76 40.64 113.12C40.9813 112.096 41.152 111.243 41.152 110.56C41.152 109.237 40.5547 107.979 39.36 106.784C38.4213 105.76 37.3333 104.779 36.096 103.84C34.8587 102.901 34.1333 102.347 33.92 102.176L31.488 100.256L30.144 99.168C27.9253 97.376 26.2613 95.9467 25.152 94.88C23.1467 92.9173 21.5467 90.6347 20.352 88.032C20.2667 87.8187 20.0533 87.3707 19.712 86.688C19.3707 86.0053 19.1147 85.344 18.944 84.704C18.6027 83.5947 18.432 82.592 18.432 81.696C18.432 79.8187 19.0293 77.8773 20.224 75.872C22.1867 73.056 24.448 70.7947 27.008 69.088C28.288 68.2773 30.5493 67.0827 33.792 65.504C36.6933 64.0107 39.9573 63.2427 43.584 63.2C45.632 63.2 47.8507 63.52 50.24 64.16C52.0747 64.7147 53.7173 65.7813 55.168 67.36H55.232L58.304 70.752L58.368 71.648L58.304 71.712L57.664 71.904C57.024 71.6907 56.32 71.328 55.552 70.816C53.4187 69.7493 50.816 69.216 47.744 69.216C44.4587 69.216 41.1307 69.9413 37.76 71.392C34.7307 72.7147 32 74.3573 29.568 76.32C26.6667 78.7947 24.896 81.3547 24.256 84C24.0427 84.9813 23.936 85.8133 23.936 86.496C23.936 88.288 24.4693 89.8667 25.536 91.232C25.8773 91.744 26.4107 92.2773 27.136 92.832C27.8613 93.3867 28.352 93.7707 28.608 93.984L31.68 96.288C34.1547 98.1653 35.9893 99.5947 37.184 100.576C37.824 101.088 38.6987 101.984 39.808 103.264C40.192 103.819 40.8107 104.608 41.664 105.632C43.1147 107.467 44.2027 108.939 44.928 110.048C45.9947 111.669 46.528 113.376 46.528 115.168C46.528 117.173 45.8453 119.072 44.48 120.864C42.3467 123.552 39.2747 125.6 35.264 127.008ZM55.232 67.36L55.424 67.424H55.36L55.232 67.36ZM32.448 72.672C32.6613 72.4587 32.8747 72.288 33.088 72.16C33.344 71.9893 33.6 71.776 33.856 71.52C33.6 71.5627 33.3227 71.5627 33.024 71.52C33.0667 71.52 33.1947 71.52 33.408 71.52C33.6213 71.4773 33.8133 71.4133 33.984 71.328C34.1547 71.2 34.304 71.008 34.432 70.752C33.8773 70.7947 33.408 70.88 33.024 71.008C32.9813 71.0507 32.9387 71.1147 32.896 71.2C32.896 71.2853 32.896 71.3707 32.896 71.456C32.8533 71.456 32.8107 71.4773 32.768 71.52C32.768 71.52 32.7467 71.52 32.704 71.52L32.768 71.584C32.5973 71.8827 32.4693 72.2027 32.384 72.544L32.448 72.672ZM29.248 75.232C29.248 75.1467 29.1413 75.0187 28.928 74.848C29.056 74.7627 29.184 74.6987 29.312 74.656C29.44 74.6133 29.5467 74.5707 29.632 74.528C29.7173 74.656 29.7387 74.7627 29.696 74.848C30.2933 74.5493 30.72 74.3147 30.976 74.144L31.424 73.44C31.4667 73.3973 31.4667 73.376 31.424 73.376C31.424 73.3333 31.424 73.312 31.424 73.312C31.2107 73.3547 30.9333 73.4827 30.592 73.696L30.272 73.504C29.9307 73.6747 29.568 73.888 29.184 74.144C28.8427 74.3573 28.4587 74.5707 28.032 74.784C28.2453 74.8693 28.4373 74.976 28.608 75.104C28.7787 75.1893 28.9493 75.2747 29.12 75.36L29.248 75.232ZM25.664 78.368C25.7493 78.112 25.792 77.8987 25.792 77.728C26.0053 77.728 26.176 77.664 26.304 77.536C26.432 77.408 26.5387 77.2587 26.624 77.088C26.7093 76.9173 26.7733 76.7893 26.816 76.704C26.8587 76.6613 26.9013 76.64 26.944 76.64C26.9867 76.64 27.0293 76.64 27.072 76.64L28.096 75.744C28.1387 75.6587 28.16 75.5733 28.16 75.488C28.16 75.4027 28.1813 75.3173 28.224 75.232C28.1813 75.232 28.096 75.232 27.968 75.232C27.84 75.1893 27.7333 75.2107 27.648 75.296C27.52 75.4667 27.2853 75.7653 26.944 76.192C26.6027 76.6187 26.2613 76.896 25.92 77.024C25.792 77.0667 25.6853 77.152 25.6 77.28C25.5147 77.408 25.4293 77.4933 25.344 77.536C25.216 77.664 25.088 77.8987 24.96 78.24C25.3013 78.24 25.536 78.2827 25.664 78.368ZM24 80.096C24.0427 80.0107 24.0427 79.9467 24 79.904C24 79.8187 24 79.776 24 79.776H23.808C23.552 79.776 23.3813 79.7973 23.296 79.84C23.3387 79.9253 23.3387 79.968 23.296 79.968C23.3813 80.0533 23.5733 80.1387 23.872 80.224L24 80.096ZM23.232 80.672C23.488 80.544 23.68 80.416 23.808 80.288C23.6373 80.3307 23.488 80.3733 23.36 80.416C23.2747 80.4587 23.1893 80.5013 23.104 80.544C23.104 80.6293 23.1467 80.672 23.232 80.672ZM25.472 92.512C25.344 92.384 25.152 92.256 24.896 92.128C24.8107 92.128 24.768 92.1707 24.768 92.256C24.8533 92.2987 24.9387 92.3413 25.024 92.384C25.152 92.4267 25.3013 92.4693 25.472 92.512ZM25.664 93.024C25.664 93.024 25.664 93.0027 25.664 92.96C25.7067 92.8747 25.7067 92.7893 25.664 92.704L25.536 92.576C25.2373 92.6613 25.0453 92.7467 24.96 92.832C25.0027 92.832 25.0027 92.8747 24.96 92.96C25.2587 93.0453 25.4933 93.0667 25.664 93.024ZM29.888 97.568C29.8453 97.4827 29.824 97.3973 29.824 97.312C29.824 97.2267 29.8027 97.1413 29.76 97.056L28.736 96.16C28.6933 96.16 28.6507 96.16 28.608 96.16C28.5653 96.16 28.5227 96.1387 28.48 96.096C28.4373 96.0107 28.352 95.8827 28.224 95.712C28.1387 95.4987 28.032 95.3493 27.904 95.264C27.8187 95.136 27.6693 95.072 27.456 95.072C27.456 94.9013 27.4133 94.688 27.328 94.432C27.2 94.5173 26.9653 94.56 26.624 94.56C26.752 94.8587 26.88 95.0933 27.008 95.264C27.0933 95.3067 27.1787 95.392 27.264 95.52C27.3493 95.648 27.456 95.7333 27.584 95.776C27.9253 95.904 28.2667 96.1813 28.608 96.608C28.9493 97.0347 29.184 97.3333 29.312 97.504C29.3973 97.5893 29.504 97.632 29.632 97.632C29.76 97.5893 29.8453 97.568 29.888 97.568ZM33.088 99.488C33.1307 99.4453 33.1307 99.4027 33.088 99.36L32.64 98.656C32.384 98.4853 31.9573 98.2507 31.36 97.952C31.4027 97.9947 31.3813 98.1013 31.296 98.272C31.2107 98.2293 31.104 98.1867 30.976 98.144C30.848 98.1013 30.72 98.0373 30.592 97.952C30.8053 97.7813 30.912 97.6533 30.912 97.568L30.784 97.44C30.6133 97.5253 30.4427 97.632 30.272 97.76C30.1013 97.8453 29.9093 97.9307 29.696 98.016C30.1227 98.2293 30.5067 98.464 30.848 98.72C31.232 98.9333 31.5947 99.1253 31.936 99.296L32.256 99.104C32.5973 99.3173 32.8747 99.4453 33.088 99.488ZM36.096 102.048C35.9253 101.749 35.7333 101.557 35.52 101.472C35.3493 101.387 35.1787 101.344 35.008 101.344C34.8373 101.301 34.7307 101.28 34.688 101.28C34.9867 101.237 35.264 101.237 35.52 101.28C35.264 101.024 35.008 100.832 34.752 100.704C34.5387 100.533 34.3253 100.341 34.112 100.128L34.048 100.256C34.1333 100.555 34.2613 100.875 34.432 101.216L34.368 101.28C34.4107 101.28 34.432 101.301 34.432 101.344C34.4747 101.344 34.5173 101.344 34.56 101.344C34.56 101.429 34.56 101.515 34.56 101.6C34.6027 101.685 34.6453 101.749 34.688 101.792C35.072 101.92 35.5413 102.005 36.096 102.048ZM44.544 118.24C45.184 117.899 45.44 117.216 45.312 116.192C44.7573 116.448 44.48 116.939 44.48 117.664C44.48 117.92 44.5013 118.112 44.544 118.24ZM44.352 118.944C44.2667 118.944 44.2027 118.901 44.16 118.816L43.392 120.16C43.392 120.16 43.4347 120.203 43.52 120.288L44.352 118.944ZM31.104 123.808C31.488 123.723 32.1067 123.595 32.96 123.424C33.856 123.211 34.6453 122.976 35.328 122.72H35.264C36.1173 122.336 37.1413 121.653 38.336 120.672C37.9093 120.928 37.504 121.163 37.12 121.376C36.736 121.547 36.416 121.696 36.16 121.824C35.0933 122.421 34.1973 122.827 33.472 123.04H33.536C33.0667 123.253 32.576 123.424 32.064 123.552C31.552 123.637 31.2107 123.701 31.04 123.744L31.104 123.808ZM47.052 163.552C46.6253 163.552 46.3053 163.531 46.092 163.488C43.4467 163.317 40.9507 162.251 38.604 160.288C38.4333 160.075 38.284 159.883 38.156 159.712C38.028 159.541 37.9213 159.392 37.836 159.264C37.7933 159.051 37.6867 158.859 37.516 158.688L37.132 158.24C36.876 157.984 36.6627 157.707 36.492 157.408C36.4067 157.195 36.3213 156.917 36.236 156.576C36.236 156.363 36.1933 156.171 36.108 156C34.9987 153.611 34.38 151.349 34.252 149.216C34.124 148.021 34.06 146.805 34.06 145.568C34.06 144.544 34.124 143.52 34.252 142.496C34.764 138.741 36.044 135.883 38.092 133.92C38.6467 133.365 39.3293 132.875 40.14 132.448C40.9933 132.021 41.5267 131.765 41.74 131.68H41.868C46.22 129.675 50.636 128.672 55.116 128.672H55.436C57.3133 128.672 59.7453 128.715 62.732 128.8H62.86C63.2867 128.8 63.5853 128.736 63.756 128.608C63.9693 128.48 64.1613 128.181 64.332 127.712L66.892 120.16C67.1907 119.392 67.596 118.24 68.108 116.704L68.236 116.384C68.0653 116.555 67.9373 116.661 67.852 116.704C67.34 117.301 66.572 118.112 65.548 119.136C62.6893 121.995 59.788 123.829 56.844 124.64C56.6733 124.683 56.4173 124.704 56.076 124.704C55.436 124.704 54.7533 124.597 54.028 124.384C53.3027 124.213 52.8333 123.979 52.62 123.68C52.236 123.168 52.044 122.571 52.044 121.888C52.044 121.845 52.108 121.376 52.236 120.48L52.3 120.032C52.3853 119.435 52.5133 118.923 52.684 118.496L52.876 117.6C52.9187 117.515 52.94 117.344 52.94 117.088C52.94 117.003 52.9613 116.853 53.004 116.64C53.0467 116.384 53.132 116.171 53.26 116C53.4307 115.787 53.5373 115.531 53.58 115.232C53.6227 114.933 53.644 114.741 53.644 114.656C53.644 114.059 53.708 113.611 53.836 113.312C54.6467 111.776 55.436 109.515 56.204 106.528L56.588 105.12L57.356 102.624C57.612 101.856 57.7827 101.28 57.868 100.896L58.572 98.656L58.764 98.016L59.148 98.592V98.656L59.532 98.4C60.2573 97.888 60.9613 97.44 61.644 97.056L61.836 96.992C62.0067 96.992 62.1987 97.0987 62.412 97.312C62.6253 97.4827 62.7747 97.6107 62.86 97.696C63.116 98.0373 63.2227 98.2933 63.18 98.464C63.1373 99.1467 62.9027 100.128 62.476 101.408L62.348 101.792L61.324 104.864C60.4707 107.424 59.8733 109.365 59.532 110.688C59.02 112.48 58.4867 114.72 57.932 117.408L57.356 119.968V120.224L57.548 120.096C59.98 118.304 62.412 115.829 64.844 112.672C67.148 109.6 69.2387 106.592 71.116 103.648C71.5853 102.88 72.076 101.792 72.588 100.384C72.6733 100.128 72.78 99.872 72.908 99.616C73.036 99.3173 73.164 99.0187 73.292 98.72C73.292 98.6347 73.3347 98.528 73.42 98.4C73.548 98.2293 73.6973 98.1227 73.868 98.08L76.044 97.504L78.668 96.8H78.86C79.1587 96.8 79.3507 96.9067 79.436 97.12L79.692 97.824C80.076 98.72 80.204 99.4027 80.076 99.872C79.8627 100.555 79.4787 101.387 78.924 102.368C78.3267 103.52 78.0067 104.181 77.964 104.352C77.6227 105.205 77.3453 105.952 77.132 106.592C76.9187 107.232 76.748 107.765 76.62 108.192L76.044 109.856L75.468 111.648L74.124 115.68L72.396 120.8L71.052 124.576L69.58 128.928L69.644 129.056C72.076 129.227 73.8253 129.333 74.892 129.376L80.78 129.76C82.828 129.888 85.516 130.123 88.844 130.464C89.0573 130.507 89.356 130.72 89.74 131.104L90.06 131.424L90.38 131.68L90.06 131.936L89.74 132.192C89.3987 132.533 89.1 132.704 88.844 132.704C86.8387 132.917 85.068 133.024 83.532 133.024H83.276C81.9533 133.024 80.012 132.981 77.452 132.896L74.572 132.832C74.1453 132.789 73.484 132.768 72.588 132.768L70.86 132.704C69.9213 132.619 69.2173 132.576 68.748 132.576C68.62 132.576 68.492 132.597 68.364 132.64C68.2787 132.725 68.2147 132.789 68.172 132.832C67.5747 134.453 67.1053 135.669 66.764 136.48C65.74 139.253 64.8867 141.408 64.204 142.944C62.7107 146.229 60.8333 149.92 58.572 154.016C57.9747 155.125 56.844 156.704 55.18 158.752L55.052 158.944C54.7107 159.371 54.1133 159.968 53.26 160.736L52.428 161.504C51.7027 162.187 50.8707 162.72 49.932 163.104C49.0787 163.403 48.1187 163.552 47.052 163.552ZM60.94 99.808V98.784L60.812 99.168L60.748 99.296C60.6627 99.4667 60.62 99.5947 60.62 99.68C60.62 99.8933 60.5987 100.043 60.556 100.128V100.704L60.94 99.808ZM75.468 99.808L75.532 99.68L75.724 99.232C75.724 99.232 75.724 99.1893 75.724 99.104L75.66 98.976L75.596 98.912L75.468 99.04C75.3827 99.1253 75.34 99.1893 75.34 99.232V100L75.468 99.808ZM74.764 101.984V101.92L74.828 101.856L75.148 101.152L75.532 100.32L75.724 99.936L75.788 99.744L75.724 99.488L75.66 99.552L75.596 99.68C75.5107 99.7653 75.468 99.8293 75.468 99.872C75.3827 100 75.1693 100.405 74.828 101.088L74.636 101.344V101.408L74.572 101.536C74.572 101.664 74.5933 101.771 74.636 101.856V102.048L74.764 101.984ZM74.828 103.008V102.944C74.8707 102.901 74.892 102.837 74.892 102.752L74.956 102.624L75.02 102.368L75.468 101.728L75.66 101.472V101.408L75.596 101.28L75.66 101.216V100.832C75.66 100.789 75.6813 100.768 75.724 100.768V100.384L75.596 100.704L75.532 100.832C75.4893 100.875 75.468 100.939 75.468 101.024C75.3827 101.195 75.34 101.323 75.34 101.408L75.212 101.664V101.792C74.8707 101.92 74.6573 102.197 74.572 102.624L74.636 102.88L74.7 103.008L74.764 103.264L74.828 103.008ZM73.42 105.376C73.4627 105.376 73.484 105.355 73.484 105.312L73.932 104.608V104.352L73.996 104.224V104.16L74.188 104.544L74.252 104.416L74.316 104.288L74.38 103.968V103.52L73.996 104.096V103.968L73.868 104.16L73.74 104.288L73.484 104.608C73.3987 104.779 73.356 104.928 73.356 105.056C73.3133 105.099 73.292 105.163 73.292 105.248L73.228 105.376H73.42ZM74.892 108.704L74.956 108.64L75.084 108.448L75.916 105.952L76.108 105.376V105.312C76.108 105.269 76.108 105.248 76.108 105.248C76.1507 105.248 76.172 105.248 76.172 105.248L76.236 105.056V104.416L76.108 104.672L76.044 104.736L75.98 104.928C75.9373 104.971 75.916 105.056 75.916 105.184L75.788 105.568L75.596 106.208L75.34 106.784L75.084 107.744L74.892 108.32L74.828 108.448L74.764 108.576L74.828 108.704H74.892ZM73.74 107.68C73.7827 107.68 73.804 107.68 73.804 107.68C73.804 107.637 73.804 107.616 73.804 107.616C73.932 107.573 74.0173 107.488 74.06 107.36L74.124 107.296L74.444 106.848H74.38L74.252 106.784C74.1667 106.699 74.0813 106.699 73.996 106.784C73.9533 106.827 73.868 106.955 73.74 107.168C73.6547 107.253 73.612 107.317 73.612 107.36H73.548L73.612 107.424V107.488C73.6973 107.573 73.74 107.616 73.74 107.616V107.68ZM55.564 119.584L55.628 119.52C55.6707 119.477 55.692 119.392 55.692 119.264C55.7773 119.051 55.8627 118.645 55.948 118.048C56.0333 117.493 56.204 116.661 56.46 115.552C56.8013 113.931 57.1853 112.416 57.612 111.008L57.676 110.624L58.188 108.832C58.2733 108.661 58.3373 108.491 58.38 108.32C58.4227 108.107 58.4653 107.915 58.508 107.744C58.508 107.616 58.5293 107.531 58.572 107.488V107.04L58.444 107.296L58.38 107.424L58.252 107.68L57.996 108.576L56.78 112.992C56.6947 113.333 56.6093 113.696 56.524 114.08C56.4387 114.421 56.3533 114.763 56.268 115.104L56.076 116.064V116L55.884 116.768L55.436 119.264V119.584L55.5 119.776L55.564 119.584ZM72.972 114.208C72.972 114.165 72.9933 114.144 73.036 114.144L73.1 114.08C73.228 113.739 73.3133 113.525 73.356 113.44C73.6973 112.629 73.8893 111.904 73.932 111.264H73.996L74.188 111.072L74.7 109.728L74.764 109.536V109.216L74.636 109.344C74.5507 109.344 74.508 109.387 74.508 109.472C74.4653 109.557 74.38 109.771 74.252 110.112L74.06 110.624C73.9747 110.795 73.932 110.923 73.932 111.008C73.8893 111.051 73.868 111.115 73.868 111.2H73.804L73.74 111.52C73.612 111.904 73.5267 112.139 73.484 112.224L73.228 112.992C73.1 113.291 72.9933 113.568 72.908 113.824C72.8653 113.867 72.844 113.952 72.844 114.08V114.336L72.972 114.208ZM59.468 110.368V109.728L59.34 109.92C59.2973 109.92 59.276 109.963 59.276 110.048C59.148 110.176 59.084 110.283 59.084 110.368C59.0413 110.411 59.02 110.517 59.02 110.688V111.008L59.468 110.368ZM56.78 111.968L56.844 111.904C56.844 111.819 56.8653 111.755 56.908 111.712C56.908 111.584 56.9507 111.392 57.036 111.136V110.816L56.972 110.88H56.908L56.844 110.944L56.524 111.2C56.4387 111.2 56.396 111.243 56.396 111.328V111.648L56.652 111.904L56.716 112.288L56.78 111.968ZM64.652 114.976C64.7373 114.933 64.8227 114.891 64.908 114.848C65.036 114.763 65.164 114.677 65.292 114.592L65.356 114.528L65.292 114.464C65.292 114.421 65.2707 114.4 65.228 114.4C65.1427 114.315 65.0787 114.293 65.036 114.336L64.588 114.72C64.5453 114.763 64.524 114.805 64.524 114.848C64.5667 114.891 64.588 114.933 64.588 114.976V115.04L64.652 114.976ZM71.628 118.048C71.628 118.005 71.628 117.984 71.628 117.984C71.6707 117.984 71.692 117.984 71.692 117.984L71.756 117.792L71.884 117.408L72.076 116.832L72.46 115.808L72.78 115.104C72.78 114.976 72.8013 114.869 72.844 114.784C72.844 114.699 72.8227 114.656 72.78 114.656V114.592L72.716 114.4L72.652 114.656V114.72L71.5 117.792V118.24L71.628 118.048ZM57.612 116.832V116.704L57.74 116.448V116.384C57.8253 116.213 57.868 116.107 57.868 116.064C57.868 115.851 57.8467 115.723 57.804 115.68C57.804 115.637 57.74 115.616 57.612 115.616H57.484V115.68L57.548 115.808V116.192C57.548 116.235 57.5267 116.256 57.484 116.256L57.42 116.32L57.484 117.088L57.612 116.832ZM55.052 119.136V119.072L55.116 118.944C55.2867 118.219 55.3933 117.6 55.436 117.088C55.4787 117.045 55.5 116.96 55.5 116.832V116.384L55.372 116.64L55.308 116.768C55.2653 116.768 55.244 116.811 55.244 116.896L54.86 118.944L54.924 119.072V119.136L54.988 119.264L55.052 119.136ZM57.228 119.008L57.292 117.984L57.164 118.24C57.0787 118.325 57.036 118.368 57.036 118.368C56.9507 118.539 56.908 118.667 56.908 118.752C56.8653 118.923 56.8653 119.072 56.908 119.2V119.584L57.228 119.008ZM69.132 121.824L69.068 121.056L68.94 121.312V121.44C68.8973 121.568 68.876 121.739 68.876 121.952L68.812 122.464L69.132 121.824ZM68.044 123.552L68.108 123.232L68.3 122.72L68.492 122.336L68.556 122.144V122.08L68.62 121.824L68.428 122.016V122.08C68.3427 122.165 68.3 122.208 68.3 122.208L68.044 122.912L67.98 123.232L67.852 123.616L67.98 123.68L68.044 123.552ZM69.644 123.744L69.708 123.616L69.9 122.976L70.22 122.208C70.22 122.123 70.2413 122.059 70.284 122.016V121.888L70.156 121.824V121.952C70.0707 122.037 70.028 122.123 70.028 122.208C69.772 122.805 69.6227 123.211 69.58 123.424C69.5373 123.467 69.516 123.552 69.516 123.68L69.452 123.872L69.58 123.936L69.644 123.744ZM65.292 128.032V127.968L65.356 127.776L65.548 127.584L65.612 127.456C65.6547 127.456 65.676 127.435 65.676 127.392L65.868 127.2L65.932 126.944L65.996 126.816L66.188 126.176L66.572 125.088V124.704L66.444 124.768L66.38 124.832L66.188 125.472L66.06 125.92C66.06 125.963 66.0387 125.984 65.996 125.984C66.0813 125.813 66.124 125.685 66.124 125.6C66.1667 125.429 66.2093 125.237 66.252 125.024C66.2947 124.853 66.3587 124.683 66.444 124.512L66.572 124.256C66.7 124.085 66.7853 123.915 66.828 123.744C66.8707 123.573 66.892 123.36 66.892 123.104L66.956 122.848C66.956 122.763 66.9773 122.699 67.02 122.656V122.592L66.956 122.4V122.336L66.892 122.208L66.828 122.336L66.764 122.4L66.572 122.656C66.3587 123.253 66.188 123.787 66.06 124.256L65.996 124.384L65.804 125.024L65.548 125.728L65.356 126.304C65.1853 126.688 65.0787 127.051 65.036 127.392C64.9507 127.563 64.9507 127.712 65.036 127.84L65.1 127.968C65.1 128.011 65.1 128.032 65.1 128.032C65.1427 128.032 65.164 128.032 65.164 128.032L65.228 128.16L65.292 128.032ZM67.276 131.488V131.296L67.404 130.912L67.34 130.784L67.468 130.592C67.468 130.549 67.4893 130.528 67.532 130.528L68.172 128.544L68.684 127.008V126.816C68.684 126.816 68.684 126.795 68.684 126.752C68.684 126.752 68.7053 126.752 68.748 126.752V126.496L68.62 126.688C68.62 126.731 68.5987 126.752 68.556 126.752L68.428 126.944L67.66 129.44L67.468 130.08L67.404 130.208L67.34 130.4V130.592L67.276 130.72L67.148 130.848L67.02 131.36L66.956 131.744L66.892 131.936L66.828 132.384L67.276 131.488ZM65.292 132.896V132.064L65.164 132.32L65.1 132.448L64.972 132.768L65.036 133.024V133.152L65.1 133.344L65.292 132.896ZM46.732 160.096C47.116 160.096 47.4787 160.011 47.82 159.84C48.7587 159.2 49.612 158.453 50.38 157.6C51.148 156.789 51.98 155.808 52.876 154.656C53.26 154.144 53.7933 153.376 54.476 152.352C54.604 152.181 54.732 151.989 54.86 151.776C54.988 151.605 55.1373 151.413 55.308 151.2C55.564 150.816 55.7987 150.347 56.012 149.792C56.268 149.195 56.5027 148.704 56.716 148.32C56.972 147.979 57.3133 147.659 57.74 147.36V147.168L57.612 146.656C57.612 146.229 57.8467 145.824 58.316 145.44L58.764 144.928C58.8067 144.757 58.9133 144.544 59.084 144.288C59.34 143.861 59.468 143.541 59.468 143.328V143.072C59.4253 143.029 59.404 142.944 59.404 142.816C59.404 142.645 59.5533 142.432 59.852 142.176L60.108 141.792C59.9373 141.621 59.852 141.408 59.852 141.152C59.8947 140.853 60.0227 140.64 60.236 140.512C60.236 140.512 60.236 140.491 60.236 140.448C60.236 140.448 60.2147 140.448 60.172 140.448C60.172 140.363 60.1293 140.192 60.044 139.936L59.98 139.552C59.98 139.253 60.044 138.976 60.172 138.72C60.3 138.464 60.3853 138.315 60.428 138.272C60.684 137.845 60.812 137.504 60.812 137.248C60.812 136.992 60.9613 136.565 61.26 135.968C61.3027 135.925 61.388 135.776 61.516 135.52L61.644 135.2L61.964 135.392L62.156 135.584C62.1987 135.584 62.22 135.605 62.22 135.648C62.3053 135.563 62.348 135.52 62.348 135.52L62.86 134.048C62.9027 134.005 62.924 133.941 62.924 133.856H62.668L62.22 133.92L62.348 133.472C62.3907 133.429 62.412 133.344 62.412 133.216L62.604 132.512L62.668 132.32C62.668 132.32 62.6467 132.299 62.604 132.256C62.5613 132.256 62.5187 132.256 62.476 132.256C61.4093 132.213 59.98 132.192 58.188 132.192C54.22 132.192 50.8067 132.555 47.948 133.28C45.0467 133.963 42.8493 135.243 41.356 137.12C40.716 137.931 40.1613 138.976 39.692 140.256C39.308 141.408 39.052 142.731 38.924 144.224C38.8387 145.163 38.796 145.867 38.796 146.336C38.796 149.749 39.7347 152.971 41.612 156C42.252 157.067 42.892 157.899 43.532 158.496C44.3853 159.264 45.3027 159.776 46.284 160.032C46.3693 160.075 46.5187 160.096 46.732 160.096ZM66.444 134.112C66.444 134.027 66.4653 133.963 66.508 133.92C66.508 133.835 66.5293 133.771 66.572 133.728C66.572 133.643 66.6147 133.515 66.7 133.344V132.96L66.764 132.512L66.572 132.96V133.024C66.5293 133.067 66.508 133.131 66.508 133.216L66.316 133.664L66.252 133.92V134.56L66.444 134.112ZM65.804 136.224L66.06 135.584L66.188 135.008H66.06L65.996 135.136C65.9533 135.179 65.932 135.221 65.932 135.264C65.932 135.349 65.9107 135.413 65.868 135.456V135.52L65.676 136.224H65.804ZM53.452 159.328C53.58 159.2 53.772 159.008 54.028 158.752C54.284 158.539 54.4973 158.304 54.668 158.048C55.18 157.237 55.8627 156.277 56.716 155.168C56.8867 154.955 57.1853 154.549 57.612 153.952C58.0387 153.397 58.444 152.779 58.828 152.096C59.0413 151.712 59.6387 150.432 60.62 148.256L61.964 145.376L61.836 145.312L59.916 148.512C57.612 152.267 55.9053 155.083 54.796 156.96C55.0947 156.235 55.756 154.891 56.78 152.928C56.8227 152.843 56.8867 152.715 56.972 152.544C57.0573 152.416 57.1427 152.267 57.228 152.096C56.972 152.181 56.2467 153.333 55.052 155.552C53.8573 157.813 53.324 159.072 53.452 159.328ZM84.4895 126.56C83.0388 126.176 82.0148 125.856 81.4175 125.6C81.0762 125.429 80.7562 125.195 80.4575 124.896C80.2015 124.597 80.0522 124.299 80.0095 124C79.6682 122.635 79.4548 121.12 79.3695 119.456C79.3695 118.048 79.5402 116.896 79.8815 116C79.9242 115.787 79.9668 115.531 80.0095 115.232C80.0522 114.933 80.0735 114.699 80.0735 114.528C80.0735 113.888 80.1162 113.419 80.2015 113.12C80.3295 112.651 80.4788 112.117 80.6495 111.52C80.8628 110.88 81.0335 110.389 81.1615 110.048L81.8015 108.128L82.8895 105.504C83.3162 104.309 83.6575 103.435 83.9135 102.88C83.9988 102.624 84.1908 102.24 84.4895 101.728C84.7882 101.173 85.0015 100.747 85.1295 100.448C86.0255 98.4 87.5188 96.5227 89.6095 94.816C90.2068 94.304 90.8255 94.048 91.4655 94.048C92.0202 94.048 92.5962 94.24 93.1935 94.624C94.6015 95.52 95.4122 96.032 95.6255 96.16C95.6255 96.16 96.5855 96.928 98.5055 98.464C98.6762 97.7813 99.0175 96.6293 99.5295 95.008C100.212 92.448 100.788 90.5493 101.258 89.312C101.471 88.7147 101.876 87.8187 102.474 86.624L103.306 84.832C103.476 84.448 103.69 83.8293 103.946 82.976C104.159 82.0373 104.607 81.184 105.29 80.416C105.588 80.16 105.823 79.7547 105.994 79.2C106.164 78.6027 106.292 78.176 106.378 77.92C106.463 77.6213 106.548 77.28 106.634 76.896C106.762 76.512 106.89 76.192 107.018 75.936C107.146 75.5947 107.338 75.2107 107.594 74.784C107.85 74.3147 108.042 73.952 108.17 73.696L111.178 67.872C111.263 67.7013 111.37 67.4667 111.498 67.168C111.668 66.8693 111.882 66.528 112.138 66.144C112.394 65.632 112.586 65.312 112.714 65.184C112.842 65.0133 113.034 64.928 113.29 64.928C113.503 64.928 113.866 64.992 114.378 65.12C115.615 65.4187 116.511 65.9093 117.066 66.592C117.322 66.848 117.706 67.1467 118.218 67.488C118.772 67.7867 119.156 68.0213 119.37 68.192C119.626 68.3627 119.796 68.5333 119.882 68.704C119.967 68.832 119.967 69.024 119.882 69.28L118.538 72.096C117.172 75.0827 116.17 77.3227 115.53 78.816L114.698 80.736C114.57 80.736 114.484 80.7147 114.442 80.672C114.442 80.3733 114.463 80.16 114.506 80.032L115.338 78.112C115.551 77.6853 115.828 77.0453 116.17 76.192C116.212 76.1067 116.212 76.0427 116.17 76C116.17 75.9147 116.191 75.8293 116.234 75.744C115.935 75.9573 115.764 76.0853 115.722 76.128C115.423 76.6827 115.018 77.5573 114.506 78.752L112.01 84L111.05 86.176L109.77 89.312C109.684 89.568 109.599 89.8027 109.514 90.016C109.428 90.1867 109.364 90.3573 109.322 90.528L109.13 90.464C109.428 89.4827 109.919 88.0533 110.602 86.176C110.047 86.3893 109.706 86.56 109.578 86.688C109.535 86.688 109.492 86.7093 109.45 86.752C109.45 86.7947 109.45 86.816 109.45 86.816C109.62 87.0293 109.706 87.264 109.706 87.52C109.706 87.6907 109.62 87.9467 109.45 88.288C109.279 88.6293 109.194 88.8853 109.194 89.056C109.151 89.184 109.13 89.376 109.13 89.632C109.13 89.8453 109.066 90.016 108.938 90.144C108.81 90.272 108.554 90.3147 108.17 90.272C108.127 90.2293 108.042 90.336 107.914 90.592C107.828 90.848 107.743 91.04 107.658 91.168C107.572 91.424 107.402 91.8933 107.146 92.576C106.932 93.216 106.676 93.6853 106.378 93.984C106.036 94.2827 105.759 94.6027 105.546 94.944C105.375 95.2427 105.204 95.6053 105.034 96.032C104.906 96.416 104.778 96.7573 104.65 97.056C104.436 97.44 104.308 97.8453 104.266 98.272C104.052 98.912 103.903 99.3173 103.818 99.488C103.476 100.427 103.092 101.387 102.666 102.368C102.623 102.453 102.516 102.709 102.346 103.136C102.175 103.52 102.154 103.947 102.282 104.416C102.324 104.501 102.346 104.651 102.346 104.864C102.346 105.12 102.303 105.44 102.218 105.824C102.132 106.165 102.068 106.464 102.026 106.72L101.45 112.672C101.62 112.672 101.748 112.651 101.834 112.608C101.876 112.736 101.919 112.885 101.962 113.056C102.004 113.227 102.026 113.44 102.026 113.696C101.983 114.507 101.962 115.765 101.962 117.472C101.962 117.557 102.026 117.664 102.154 117.792C102.026 114.08 102.559 110.133 103.754 105.952C103.711 106.165 103.626 106.549 103.498 107.104C103.37 107.659 103.284 108.171 103.242 108.64C103.156 109.323 103.092 109.92 103.05 110.432C103.05 110.944 103.05 111.371 103.05 111.712C102.964 112.651 102.879 113.355 102.794 113.824L102.538 116C102.495 116.341 102.474 116.875 102.474 117.6C102.474 117.856 102.559 118.069 102.73 118.24L103.37 119.072L103.69 118.432C103.775 119.157 103.818 119.797 103.818 120.352C103.818 120.864 103.839 121.291 103.882 121.632C103.882 121.717 103.924 121.803 104.01 121.888C104.095 121.931 104.159 121.952 104.202 121.952L104.586 121.888C104.842 121.888 104.991 121.952 105.034 122.08C105.076 122.208 105.098 122.443 105.098 122.784C105.14 122.955 105.247 123.211 105.418 123.552C105.46 123.637 105.482 123.744 105.482 123.872C105.482 124.085 105.418 124.235 105.29 124.32C105.162 124.405 105.012 124.427 104.842 124.384C104.586 124.341 104.18 124.277 103.626 124.192C103.114 124.107 102.644 124 102.218 123.872C101.834 123.701 101.492 123.467 101.194 123.168C100.895 122.869 100.404 122.464 99.7215 121.952C99.4655 121.781 99.0815 121.483 98.5695 121.056C98.2708 120.757 97.9935 120.352 97.7375 119.84C97.4815 119.285 97.2895 118.88 97.1615 118.624L96.7775 117.728C96.0522 118.88 95.6042 119.627 95.4335 119.968C95.3482 119.883 95.2415 119.84 95.1135 119.84C95.2415 119.627 95.3908 119.392 95.5615 119.136C95.7322 118.837 95.9028 118.496 96.0735 118.112C96.1162 117.984 96.2015 117.771 96.3295 117.472C96.5002 117.131 96.5855 116.811 96.5855 116.512C96.5855 116.341 96.5428 116.128 96.4575 115.872C96.3722 115.616 96.3295 115.403 96.3295 115.232C96.3295 114.976 96.3508 114.656 96.3935 114.272C96.4788 113.888 96.5428 113.589 96.5855 113.376V113.248C96.5855 112.864 96.3722 112.736 95.9455 112.864C95.8175 112.907 95.7108 112.949 95.6255 112.992C95.5828 113.035 95.5402 113.077 95.4975 113.12C95.7535 113.12 95.9668 113.099 96.1375 113.056C96.0522 113.269 95.9242 113.589 95.7535 114.016C95.5828 114.4 95.4762 114.763 95.4335 115.104C95.4335 115.147 95.3908 115.232 95.3055 115.36C95.2202 115.488 95.1775 115.595 95.1775 115.68C95.1775 115.851 95.3268 116 95.6255 116.128C95.6255 116.171 95.6042 116.341 95.5615 116.64C95.5188 116.896 95.5188 117.131 95.5615 117.344L96.0735 116.896C96.1588 116.896 96.2015 116.917 96.2015 116.96C96.0735 117.173 95.9242 117.387 95.7535 117.6C95.5828 117.813 95.4335 118.027 95.3055 118.24C95.0922 118.368 94.9642 118.475 94.9215 118.56C94.8362 118.731 94.7295 118.944 94.6015 119.2C94.5162 119.456 94.3882 119.648 94.2175 119.776C94.0895 119.904 93.8335 119.947 93.4495 119.904C93.4922 119.605 93.5988 119.115 93.7695 118.432L92.2975 120.032C92.2122 120.032 92.1268 119.989 92.0415 119.904C92.2122 119.221 92.6175 118.027 93.2575 116.32C93.3002 116.235 93.3215 116.128 93.3215 116C93.3215 115.829 93.1082 115.723 92.6815 115.68L91.6575 116.768C91.5722 116.853 91.5295 116.917 91.5295 116.96C91.6148 117.472 91.5508 117.899 91.3375 118.24C91.1242 118.581 90.8682 118.923 90.5695 119.264C90.2708 119.563 90.0362 119.797 89.8655 119.968C89.7375 120.096 89.6735 120.16 89.6735 120.16C89.6735 120.629 89.5668 121.056 89.3535 121.44C89.1828 121.781 88.8842 122.187 88.4575 122.656C88.0735 123.083 87.8175 123.403 87.6895 123.616L86.1535 125.216C85.8975 125.472 85.7695 125.643 85.7695 125.728C85.7695 126.112 85.6415 126.368 85.3855 126.496C85.1722 126.667 84.8735 126.688 84.4895 126.56ZM83.8495 120.352C84.6602 119.499 85.3855 118.624 86.0255 117.728C86.7082 116.789 87.3268 115.872 87.8815 114.976C88.4362 114.08 88.8202 113.461 89.0335 113.12C89.0335 113.12 88.9908 113.419 88.9055 114.016C89.4175 113.291 90.1855 112.288 91.2095 111.008C91.6788 110.453 92.3402 109.621 93.1935 108.512L93.5135 108.704C93.3855 109.088 93.1508 109.664 92.8095 110.432C93.0228 110.219 93.2148 109.963 93.3855 109.664C93.5562 109.365 93.6842 109.131 93.7695 108.96C93.8548 108.832 94.0042 108.725 94.2175 108.64C93.9188 109.067 93.7695 109.472 93.7695 109.856C93.7695 110.069 93.7908 110.24 93.8335 110.368C93.8335 110.667 93.8122 110.859 93.7695 110.944C93.5988 111.328 93.4282 111.669 93.2575 111.968C93.1295 112.267 93.0228 112.523 92.9375 112.736L92.2335 113.504C91.9348 113.803 91.7855 113.952 91.7855 113.952C91.3588 115.147 90.9962 116.043 90.6975 116.64C90.6548 116.768 90.5055 116.896 90.2495 117.024C89.9935 117.152 89.8015 117.259 89.6735 117.344L90.1855 117.728C89.7588 118.325 89.3962 118.773 89.0975 119.072V118.56C89.0122 118.688 88.9055 118.837 88.7775 119.008C88.6495 119.179 88.5642 119.307 88.5215 119.392C88.5215 119.477 88.5642 119.605 88.6495 119.776C88.7775 119.904 88.8628 119.989 88.9055 120.032C88.9482 119.989 89.0335 119.968 89.1615 119.968C89.2895 119.925 89.3748 119.883 89.4175 119.84L90.5695 117.856L91.7855 115.616L92.9375 113.44C93.0228 113.141 93.3855 112.48 94.0255 111.456C94.5802 110.645 94.9855 109.941 95.2415 109.344L96.3935 105.44L95.4335 105.696C95.5615 105.269 95.6255 105.035 95.6255 104.992C95.6682 104.907 95.7108 104.8 95.7535 104.672C95.8388 104.544 95.8602 104.459 95.8175 104.416C95.6468 104.203 95.6468 103.904 95.8175 103.52C95.9882 103.136 96.0735 102.88 96.0735 102.752C96.0735 102.453 95.9028 102.219 95.5615 102.048C95.5188 102.048 95.5188 102.027 95.5615 101.984C95.6042 101.941 95.6468 101.899 95.6895 101.856C95.8175 101.515 95.8815 101.216 95.8815 100.96C95.8815 100.661 95.7748 100.235 95.5615 99.68C95.3482 99.0827 95.2202 98.656 95.1775 98.4C95.1348 98.3147 94.9855 98.2293 94.7295 98.144C94.5162 98.016 94.3455 97.9733 94.2175 98.016C94.0042 98.0587 93.7695 98.1653 93.5135 98.336C93.3002 98.464 93.1295 98.5493 93.0015 98.592C93.0442 98.464 93.1082 98.3573 93.1935 98.272C93.3215 98.1867 93.4282 98.1227 93.5135 98.08C93.6415 97.952 93.7055 97.7813 93.7055 97.568C93.6628 97.568 93.5775 97.568 93.4495 97.568C93.3215 97.568 93.2575 97.5893 93.2575 97.632L92.1695 98.592C92.0415 98.72 91.7428 98.976 91.2735 99.36C90.8468 99.744 90.5055 100.149 90.2495 100.576C89.5668 101.813 88.6282 103.712 87.4335 106.272L86.3455 108.64C86.3028 108.64 86.1322 108.533 85.8335 108.32L85.6415 108.704C85.5988 108.875 85.5135 109.109 85.3855 109.408C85.3002 109.707 85.2575 109.963 85.2575 110.176C85.2575 110.517 85.3215 110.773 85.4495 110.944V111.072C85.4495 111.285 85.4068 111.52 85.3215 111.776C85.2788 111.947 85.2148 112.16 85.1295 112.416C85.0442 112.672 84.9802 112.949 84.9375 113.248C84.5962 114.699 84.3615 115.787 84.2335 116.512C84.1482 116.768 84.0202 117.088 83.8495 117.472C83.7215 117.856 83.6362 118.176 83.5935 118.432V118.624C83.5935 118.795 83.6148 119.072 83.6575 119.456C83.7428 119.797 83.8068 120.096 83.8495 120.352ZM90.2495 114.208C90.8468 113.696 91.2735 113.312 91.5295 113.056C91.0175 113.056 90.6762 113.12 90.5055 113.248C90.3775 113.376 90.2922 113.696 90.2495 114.208ZM101.642 118.112L101.386 113.12L101.13 116.256V116.64L101.194 118.112H101.642ZM119.281 127.584C119.025 127.627 118.747 127.648 118.449 127.648C118.278 127.648 117.83 127.584 117.105 127.456C116.337 127.371 115.675 127.2 115.121 126.944C114.609 126.731 114.182 126.411 113.841 125.984C113.499 125.6 113.307 125.152 113.265 124.64C112.838 122.421 112.582 120.757 112.497 119.648C112.411 119.307 112.369 118.944 112.369 118.56C112.411 118.133 112.433 117.835 112.433 117.664C112.433 117.28 112.411 117.003 112.369 116.832C112.411 116.491 112.39 116.107 112.305 115.68C112.262 115.211 112.241 114.805 112.241 114.464V114.336C112.241 114.123 112.347 113.76 112.561 113.248C112.561 113.205 112.582 113.12 112.625 112.992C112.71 112.864 112.731 112.757 112.689 112.672C112.646 112.544 112.603 112.395 112.561 112.224C112.518 112.053 112.497 111.883 112.497 111.712C112.497 111.371 112.625 111.051 112.881 110.752C113.094 110.539 113.201 110.155 113.201 109.6C113.201 109.045 113.222 108.619 113.265 108.32C113.265 108.277 113.243 108.235 113.201 108.192C113.158 108.149 113.115 108.128 113.073 108.128C112.603 108.853 112.113 109.493 111.601 110.048C111.089 110.56 110.705 110.816 110.449 110.816C110.321 110.816 110.129 110.773 109.873 110.688C109.659 110.56 109.51 110.453 109.424 110.368C109.51 109.771 109.681 109.344 109.937 109.088C110.278 108.789 111.089 107.637 112.369 105.632C112.881 104.736 113.307 104.075 113.649 103.648C113.819 103.435 113.926 103.072 113.969 102.56C114.054 102.048 114.139 101.707 114.225 101.536V101.216C114.31 100.875 114.417 100.384 114.545 99.744C114.715 99.0613 114.865 98.4853 114.993 98.016C115.078 97.8453 115.163 97.6747 115.249 97.504C115.377 97.3333 115.483 97.1627 115.569 96.992C115.697 95.2427 116.187 93.3867 117.041 91.424C117.211 91.04 117.403 90.2293 117.617 88.992L118.833 86.048C118.918 85.8347 119.025 85.5573 119.153 85.216C119.323 84.8747 119.43 84.576 119.473 84.32C119.515 84.192 119.515 84 119.473 83.744C119.473 83.4453 119.494 83.232 119.537 83.104C119.835 82.0373 120.219 80.8427 120.689 79.52C121.542 76.9173 122.161 75.1253 122.545 74.144C122.758 73.7173 123.078 73.248 123.505 72.736C123.931 72.1813 124.251 71.7547 124.465 71.456C124.465 71.4133 124.486 71.3493 124.529 71.264C124.571 71.136 124.635 71.0293 124.721 70.944L124.593 71.904C124.934 71.7333 125.105 71.456 125.105 71.072C125.105 70.9013 125.062 70.688 124.977 70.432C124.891 70.0907 124.849 69.8347 124.849 69.664C124.849 69.2373 124.955 68.9173 125.169 68.704C125.595 67.808 126.278 66.5067 127.217 64.8C128.155 63.0933 128.71 62.0907 128.881 61.792L130.417 58.784C130.929 58.144 131.569 57.824 132.337 57.824C132.721 57.824 133.083 57.9093 133.425 58.08C133.809 58.2507 134.321 58.336 134.961 58.336H135.089C135.643 58.336 136.07 58.656 136.369 59.296C137.009 60.704 137.329 61.9413 137.329 63.008C137.329 63.7333 137.201 64.4587 136.945 65.184C136.689 65.7813 136.518 66.4853 136.433 67.296C136.347 68.064 136.305 68.5333 136.305 68.704C136.305 68.9173 136.326 69.0453 136.369 69.088C136.753 69.472 136.881 69.856 136.753 70.24L136.113 72.608L136.177 73.056C136.219 73.0133 136.262 72.9707 136.305 72.928C136.39 72.8427 136.454 72.7787 136.497 72.736L136.945 71.072C137.457 69.024 138.033 66.976 138.673 64.928L138.737 64.672L138.929 64.8C138.886 65.0987 138.801 65.6107 138.673 66.336C138.587 67.0613 138.459 67.68 138.289 68.192C138.203 68.6613 138.097 69.0667 137.969 69.408C137.883 69.7493 137.798 70.048 137.713 70.304C137.542 70.7307 137.393 71.2213 137.265 71.776C137.222 71.9467 137.179 72.224 137.137 72.608C137.137 72.9493 137.115 73.2267 137.073 73.44C136.945 73.9947 136.603 74.9547 136.049 76.32L135.537 77.6C135.025 79.0507 134.598 80.1173 134.257 80.8C133.83 81.7813 133.147 83.2107 132.209 85.088L130.993 87.648C129.585 90.6773 128.454 92.9173 127.601 94.368C125.553 97.6107 123.654 100.299 121.905 102.432C121.734 102.645 121.478 102.944 121.137 103.328C120.795 103.669 120.539 103.989 120.369 104.288C120.283 104.416 120.241 104.651 120.241 104.992C120.241 105.291 120.219 105.547 120.177 105.76C120.091 106.784 120.049 107.573 120.049 108.128C119.963 109.664 119.857 110.816 119.729 111.584C119.686 111.755 119.622 111.968 119.537 112.224C119.451 112.437 119.409 112.608 119.409 112.736L119.665 121.504C119.665 121.803 119.686 122.037 119.729 122.208C119.942 122.123 120.305 122.037 120.817 121.952C121.329 121.867 121.627 121.781 121.713 121.696C122.694 121.056 123.675 120.267 124.657 119.328C125.638 118.389 126.811 117.088 128.177 115.424C128.305 115.253 128.966 114.336 130.161 112.672C131.185 111.221 131.825 110.347 132.081 110.048C132.55 109.579 132.998 109.344 133.425 109.344C133.638 109.344 133.809 109.365 133.937 109.408C133.979 109.451 134.086 109.472 134.257 109.472L134.897 109.408C135.067 109.451 135.217 109.579 135.345 109.792C135.473 109.963 135.494 110.155 135.409 110.368C134.939 111.648 134.662 112.395 134.577 112.608L134.769 112.8C134.897 112.629 135.003 112.459 135.089 112.288C135.217 112.075 135.345 111.904 135.473 111.776C135.643 111.563 135.857 111.349 136.113 111.136C136.369 110.88 136.518 110.773 136.561 110.816C136.219 111.072 135.985 111.349 135.857 111.648C135.771 111.947 135.814 112.096 135.985 112.096C133.297 115.936 130.374 119.392 127.217 122.464C124.059 125.493 121.414 127.2 119.281 127.584ZM122.993 90.784C123.078 90.7413 123.227 90.656 123.441 90.528C123.697 90.3573 123.867 90.1653 123.953 89.952C124.55 88.9707 125.233 87.7333 126.001 86.24C127.195 83.936 127.985 82.3147 128.369 81.376C128.923 79.9253 129.414 78.7307 129.841 77.792C130.011 77.3653 130.182 76.9813 130.353 76.64C130.523 76.2987 130.673 76 130.801 75.744C131.483 74.3787 131.931 73.3333 132.145 72.608C132.785 70.6027 133.275 68.7467 133.617 67.04C134.001 65.3333 134.193 63.6267 134.193 61.92C134.193 61.3227 134.086 60.8107 133.873 60.384C133.702 59.9573 133.489 59.7867 133.233 59.872C132.337 60.0427 131.718 60.2987 131.377 60.64C131.078 60.9387 130.843 61.3227 130.673 61.792C130.502 62.2187 130.395 62.4747 130.353 62.56L130.545 62.752L131.185 62.176C131.099 62.7307 130.993 63.1573 130.865 63.456L130.033 64.992C129.265 66.272 128.753 67.2533 128.497 67.936C127.729 69.856 126.619 72.736 125.169 76.576C125.126 76.6613 125.105 76.7467 125.105 76.832C125.147 76.8747 125.147 76.9387 125.105 77.024C125.275 77.1093 125.403 77.152 125.489 77.152C125.574 77.152 125.638 77.1093 125.681 77.024C125.766 76.9387 125.787 76.832 125.745 76.704C125.873 76.4907 126.15 75.9147 126.577 74.976C126.577 75.4027 126.513 75.8507 126.385 76.32C126.257 76.7467 126.171 77.024 126.128 77.152C125.745 78.6027 125.403 79.584 125.105 80.096C124.891 80.48 124.785 80.9067 124.785 81.376C124.785 81.8027 124.827 82.1227 124.913 82.336L124.849 82.272C124.763 82.3147 124.635 82.3573 124.465 82.4C124.337 82.4427 124.251 82.4853 124.208 82.528L123.889 84.576C123.889 84.7893 123.867 85.0027 123.825 85.216C123.782 85.3867 123.739 85.536 123.697 85.664C123.569 85.8347 123.334 86.0693 122.993 86.368C122.694 86.624 122.438 86.88 122.225 87.136C122.054 87.392 121.969 87.712 121.969 88.096L122.033 89.056H122.225L122.545 88.288C122.587 88.544 122.587 88.7573 122.545 88.928C122.545 89.056 122.545 89.184 122.545 89.312L122.993 88.672C122.993 88.8853 122.95 89.1627 122.865 89.504L122.993 90.784ZM135.409 75.68C135.537 75.4667 135.622 75.232 135.665 74.976C135.75 74.6773 135.814 74.464 135.857 74.336C135.899 74.2933 135.878 74.272 135.793 74.272C135.75 74.2293 135.707 74.1867 135.665 74.144C135.281 74.6133 135.046 74.976 134.961 75.232C134.875 75.232 135.025 75.3813 135.409 75.68ZM120.113 95.648C120.369 94.7947 120.646 93.792 120.945 92.64L120.561 92.512C120.518 93.2373 120.369 94.2827 120.113 95.648L119.473 95.136C119.43 95.264 119.366 95.4987 119.281 95.84C119.195 96.1813 119.089 96.5227 118.961 96.864L120.113 95.648ZM117.489 109.152C117.531 108.939 117.574 108.683 117.617 108.384C117.659 108.043 117.745 107.659 117.873 107.232L117.553 107.168L117.233 109.088C117.361 109.088 117.446 109.109 117.489 109.152ZM119.281 108.896C119.323 108.768 119.387 108.576 119.473 108.32C119.558 108.021 119.622 107.744 119.665 107.488C119.707 107.445 119.707 107.403 119.665 107.36C119.622 107.317 119.601 107.275 119.601 107.232C119.515 107.275 119.409 107.296 119.281 107.296C119.195 107.296 119.153 107.317 119.153 107.36C119.067 107.701 118.982 108.171 118.897 108.768C119.067 108.853 119.195 108.896 119.281 108.896ZM118.513 114.528C118.683 114.443 118.769 114.379 118.769 114.336C118.769 113.867 118.747 113.483 118.705 113.184C118.662 112.843 118.619 112.565 118.577 112.352C118.577 112.309 118.534 112.288 118.449 112.288L118.257 114.272L118.513 114.528ZM132.401 115.616C132.913 115.189 133.297 114.763 133.553 114.336C133.553 114.336 133.553 114.293 133.553 114.208L133.361 114.272C132.721 114.485 132.401 114.912 132.401 115.552C132.315 115.595 132.187 115.637 132.017 115.68C131.889 115.68 131.803 115.723 131.761 115.808C131.718 115.851 131.611 116 131.441 116.256C131.27 116.469 131.014 116.576 130.673 116.576C130.63 116.533 130.566 116.555 130.481 116.64C130.438 116.725 130.395 116.832 130.353 116.96C130.31 117.003 130.289 117.045 130.289 117.088C130.289 117.131 130.267 117.152 130.225 117.152C130.011 117.152 129.862 117.216 129.777 117.344C129.691 117.472 129.627 117.643 129.585 117.856C129.457 117.899 129.457 118.048 129.585 118.304C129.67 118.304 129.777 118.325 129.905 118.368C130.075 118.411 130.182 118.411 130.225 118.368L132.401 115.616ZM140.857 90.784C139.875 90.4 139.086 90.0373 138.489 89.696C138.361 89.6533 138.233 89.5467 138.105 89.376C138.019 89.2053 137.977 89.056 137.977 88.928C138.019 88.5867 138.126 88.0747 138.297 87.392C138.681 85.8987 139.534 84.448 140.857 83.04C141.027 82.8693 141.241 82.7413 141.497 82.656C141.753 82.528 141.923 82.4427 142.009 82.4C142.094 82.656 142.137 82.848 142.137 82.976C142.094 83.104 142.03 83.2533 141.945 83.424C141.859 83.5947 141.774 83.7867 141.689 84L141.817 84.064L142.265 83.424C142.307 83.5947 142.329 83.808 142.329 84.064C142.414 84.0213 142.499 83.9787 142.585 83.936C142.713 83.8933 142.841 83.808 142.969 83.68C143.097 83.5093 143.225 83.424 143.353 83.424L144.057 83.552C144.057 83.6373 143.993 83.8507 143.865 84.192L144.312 83.808C144.312 83.8507 144.355 83.872 144.441 83.872L143.993 85.152C143.31 87.2853 142.777 88.8853 142.393 89.952C142.222 90.6347 141.966 90.976 141.625 90.976C141.411 90.976 141.155 90.912 140.857 90.784ZM136.377 126.304C136.206 126.475 135.993 126.56 135.737 126.56C135.353 126.56 134.99 126.347 134.649 125.92C134.521 125.749 134.35 125.621 134.137 125.536C133.966 125.451 133.667 125.323 133.241 125.152C132.814 124.981 132.494 124.768 132.281 124.512C131.683 123.915 131.449 123.04 131.577 121.888C131.577 121.504 131.577 120.949 131.577 120.224C131.619 119.456 131.683 118.816 131.769 118.304L131.961 116.384C132.046 114.464 132.281 112.949 132.665 111.84C132.75 111.627 132.793 111.349 132.793 111.008C132.835 110.624 132.878 110.304 132.921 110.048L133.369 108.576L133.497 108.512C133.326 108.384 133.241 108.256 133.241 108.128C133.241 108 133.326 107.829 133.497 107.616C133.667 107.36 133.71 107.168 133.625 107.04L133.433 107.296C133.433 107.253 133.411 107.189 133.369 107.104C133.369 107.019 133.39 106.976 133.433 106.976C133.774 106.763 134.009 106.507 134.137 106.208C134.265 105.867 134.371 105.504 134.457 105.12C134.542 104.693 134.627 104.352 134.713 104.096C134.883 103.584 135.097 102.816 135.353 101.792L135.801 100.192C136.313 98.912 136.739 97.9733 137.081 97.376C137.166 97.2053 137.358 97.056 137.657 96.928C137.955 96.8 138.147 96.7147 138.233 96.672C138.275 96.7147 138.339 96.8213 138.425 96.992C138.553 97.12 138.595 97.248 138.553 97.376L138.105 100.256C138.446 99.4027 138.659 98.8693 138.745 98.656H138.873C138.873 99.1253 138.83 99.4667 138.745 99.68C138.531 100.491 138.382 101.024 138.297 101.28L137.849 102.944C137.806 103.029 137.785 103.2 137.785 103.456C137.529 104.139 137.315 104.651 137.145 104.992L137.401 105.12L137.785 103.456L138.745 100.96C138.958 100.32 139.235 99.7227 139.577 99.168C139.577 99.3813 139.513 99.6587 139.385 100C139.641 99.8293 139.811 99.7013 139.897 99.616L139.705 101.536L140.153 101.088L140.409 101.152L139.513 104.48C139.47 104.779 139.299 105.397 139.001 106.336C138.574 107.872 138.297 109.024 138.169 109.792C137.87 111.456 137.507 113.845 137.081 116.96C137.038 117.045 137.059 117.195 137.145 117.408C138.467 116.256 139.769 114.976 141.049 113.568C142.371 112.117 143.374 110.795 144.057 109.6C144.142 109.685 144.206 109.728 144.249 109.728C144.121 110.069 143.993 110.368 143.865 110.624C143.779 110.88 143.694 111.115 143.609 111.328L143.673 111.392L144.76 109.792L145.145 109.152L145.593 108.448C145.593 108.405 145.699 108.235 145.913 107.936L146.105 108.384L146.297 108.512L146.873 107.104C146.873 107.061 146.83 106.997 146.745 106.912C146.745 106.869 146.723 106.827 146.681 106.784C146.638 106.741 146.638 106.699 146.681 106.656L147.385 105.888C147.555 105.675 147.705 105.397 147.833 105.056C147.961 104.843 148.11 104.523 148.281 104.096L148.473 104.16C148.43 104.288 148.387 104.437 148.345 104.608C148.302 104.736 148.259 104.907 148.217 105.12L148.537 104.928C148.622 105.013 148.665 105.056 148.665 105.056C148.579 105.269 148.409 105.589 148.153 106.016C148.11 106.144 148.025 106.421 147.897 106.848C147.769 107.275 147.619 107.616 147.449 107.872C147.363 108.043 147.257 108.192 147.128 108.32C147.043 108.405 146.958 108.491 146.873 108.576C146.873 108.619 146.83 108.704 146.745 108.832C146.702 108.96 146.787 109.003 147.001 108.96C147.001 109.173 146.979 109.323 146.937 109.408C146.851 109.621 146.702 109.899 146.489 110.24C146.275 110.581 146.169 110.88 146.169 111.136C146.169 111.477 146.083 111.797 145.913 112.096C145.742 112.395 145.635 112.629 145.593 112.8C145.55 112.843 145.443 112.864 145.273 112.864C145.017 112.949 144.867 113.035 144.825 113.12C144.825 113.163 144.846 113.227 144.889 113.312C144.931 113.397 144.953 113.483 144.953 113.568V114.144C145.038 114.485 145.081 114.741 145.081 114.912C145.337 114.656 145.465 114.507 145.465 114.464C145.55 114.293 145.614 114.101 145.657 113.888C145.742 113.632 145.806 113.504 145.849 113.504C146.105 113.504 146.233 113.312 146.233 112.928C146.233 112.757 146.254 112.629 146.297 112.544C146.339 112.416 146.425 112.352 146.553 112.352C146.595 112.352 146.617 112.331 146.617 112.288C146.659 111.819 146.873 111.371 147.257 110.944C147.641 110.475 147.897 110.133 148.025 109.92C148.11 109.835 148.281 109.792 148.537 109.792C148.793 109.792 148.963 109.792 149.049 109.792C149.049 109.749 149.07 109.685 149.113 109.6C149.155 109.472 149.198 109.387 149.241 109.344C149.283 109.301 149.326 109.301 149.369 109.344C149.454 109.344 149.518 109.365 149.561 109.408C149.603 109.408 149.625 109.451 149.625 109.536C149.625 109.579 149.603 109.621 149.561 109.664L149.369 110.112C149.241 110.24 149.049 110.389 148.793 110.56C148.75 111.2 148.579 111.84 148.281 112.48C148.025 113.077 147.619 113.845 147.065 114.784C146.297 116.107 145.23 117.536 143.865 119.072C142.499 120.565 141.219 121.739 140.025 122.592C139.598 123.189 139.043 123.808 138.361 124.448C137.678 125.131 137.017 125.749 136.377 126.304ZM165.442 127.008C164.717 127.221 164.183 127.328 163.842 127.328C163.415 127.328 163.01 127.243 162.626 127.072C162.285 126.944 161.943 126.795 161.602 126.624C161.261 126.453 161.026 126.325 160.898 126.24C160.813 126.197 160.749 126.048 160.706 125.792C160.663 125.579 160.599 125.387 160.514 125.216C160.429 125.088 160.279 124.896 160.066 124.64C159.853 124.384 159.725 124.149 159.682 123.936C159.639 123.509 159.597 122.997 159.554 122.4C159.511 121.76 159.447 121.227 159.362 120.8C159.447 120.032 159.533 119.413 159.618 118.944L159.874 116.96L158.658 118.496C157.89 119.435 157.314 120.181 156.93 120.736C155.821 122.315 154.605 123.531 153.282 124.384C151.959 125.237 150.637 125.664 149.314 125.664C148.589 125.664 147.821 125.493 147.01 125.152C145.943 124.64 145.41 123.296 145.41 121.12C145.41 118.816 145.965 115.936 147.074 112.48C147.202 111.712 147.415 110.816 147.714 109.792C148.055 108.725 148.29 107.936 148.418 107.424C148.887 105.931 149.25 104.693 149.506 103.712C149.762 102.688 149.89 101.728 149.89 100.832C149.89 99.296 149.463 98.0373 148.61 97.056C148.567 95.7333 148.845 94.944 149.442 94.688L152.002 93.984C152.642 94.1547 153.09 94.4533 153.346 94.88C153.602 95.3067 153.773 96.032 153.858 97.056C154.157 98.1653 154.306 99.3173 154.306 100.512C154.306 100.939 154.263 101.536 154.178 102.304C154.093 102.688 154.029 103.008 153.986 103.264C153.986 103.52 153.986 103.733 153.986 103.904C153.986 104.672 153.879 105.355 153.666 105.952C153.239 107.104 152.557 109.451 151.618 112.992C151.447 113.461 151.234 114.208 150.978 115.232C150.637 116.683 150.466 117.771 150.466 118.496C150.466 119.563 150.722 120.779 151.234 122.144C152.087 120.949 153.175 119.691 154.498 118.368C155.863 116.917 156.802 115.829 157.314 115.104L157.634 116.256L158.594 115.168H158.53C158.871 114.656 159.149 114.272 159.362 114.016C160.002 113.077 160.407 112.437 160.578 112.096C161.005 111.2 161.687 109.515 162.626 107.04L162.306 106.976C161.325 108.683 160.685 109.813 160.386 110.368C160.727 109.344 161.026 108.555 161.282 108L163.138 103.84C163.394 103.285 163.693 102.581 164.034 101.728C164.418 100.832 164.887 99.808 165.442 98.656C165.911 97.632 166.423 96.6933 166.978 95.84C167.063 95.712 167.255 95.584 167.554 95.456C167.853 95.328 168.066 95.2427 168.194 95.2C168.493 95.0293 168.877 94.7947 169.346 94.496C169.815 94.1973 170.221 94.0053 170.562 93.92C170.69 93.8773 170.839 93.856 171.01 93.856C171.479 93.856 171.714 94.1547 171.714 94.752C171.714 95.008 171.693 95.2 171.65 95.328L170.818 98.144C169.794 101.643 168.77 104.949 167.746 108.064C166.466 111.819 165.826 115.019 165.826 117.664C165.826 118.773 165.911 119.755 166.082 120.608C166.253 121.589 166.743 122.507 167.554 123.36C167.639 123.445 167.81 123.488 168.066 123.488C168.322 123.488 168.578 123.445 168.834 123.36C169.133 123.275 169.325 123.189 169.41 123.104C170.263 122.123 171.202 120.949 172.226 119.584L173.25 118.24C173.335 118.112 173.421 118.027 173.506 117.984C173.634 117.899 173.741 117.813 173.826 117.728C173.911 118.069 173.933 118.368 173.89 118.624C174.402 118.709 174.743 118.667 174.914 118.496C175.127 118.283 175.298 117.984 175.426 117.6C175.597 117.173 175.746 116.875 175.874 116.704L177.41 115.104C177.453 115.061 177.581 115.104 177.794 115.232C178.007 115.317 178.093 115.381 178.05 115.424C178.05 115.936 177.901 116.576 177.602 117.344C177.389 118.027 177.026 118.88 176.514 119.904C176.215 120.416 175.789 120.971 175.234 121.568L173.698 123.168C172.887 123.979 172.013 124.576 171.074 124.96C170.178 125.387 168.919 125.877 167.298 126.432L165.442 127.008ZM151.874 101.216C151.831 101.216 152.194 101.109 152.962 100.896C152.834 100.171 152.727 99.04 152.642 97.504H152.386L151.874 101.216ZM149.186 105.888C149.186 106.059 149.314 106.016 149.57 105.76C149.57 105.675 149.591 105.611 149.634 105.568C149.677 105.483 149.719 105.397 149.762 105.312L149.698 104.928L149.954 104.608V104.544C149.826 104.672 149.762 104.736 149.762 104.736L149.698 104.928L149.186 105.888ZM162.562 109.088C162.775 108.661 162.967 108.363 163.138 108.192C163.138 108.064 163.117 107.957 163.074 107.872C162.989 108.043 162.882 108.213 162.754 108.384C162.669 108.512 162.605 108.64 162.562 108.768C162.519 108.981 162.519 109.088 162.562 109.088ZM163.458 108.512H163.266L162.818 110.368L163.458 108.512ZM165.698 108.896L165.25 108.704L164.29 110.56C164.119 110.304 164.013 110.112 163.97 109.984C163.799 110.496 163.735 110.859 163.778 111.072C163.778 111.243 163.842 111.435 163.97 111.648C164.098 111.819 164.183 111.968 164.226 112.096L165.698 108.896ZM156.034 120.608C156.205 120.395 156.525 120.011 156.994 119.456C157.506 118.901 157.911 118.389 158.21 117.92L160.13 114.72C161.069 113.269 161.965 111.797 162.818 110.304C162.733 110.219 162.626 110.176 162.498 110.176L156.162 119.84C156.503 119.413 157.463 118.219 159.042 116.256C158.999 116.299 158.978 116.363 158.978 116.448C158.978 116.533 158.935 116.64 158.85 116.768C158.338 117.451 157.933 117.963 157.634 118.304C156.482 119.84 155.906 120.608 155.906 120.608C155.821 120.608 155.735 120.672 155.65 120.8L156.034 120.608ZM160.386 110.368L160.322 110.496H160.258L160.386 110.368ZM163.266 114.912C163.351 114.827 163.479 114.699 163.65 114.528C163.863 114.357 163.97 114.165 163.97 113.952C164.098 113.696 164.162 113.376 164.162 112.992C164.205 112.608 164.226 112.331 164.226 112.16L163.458 112.224L162.818 115.424L163.266 114.912ZM147.714 113.056C147.927 112.672 148.055 112.437 148.098 112.352L148.034 112.224C148.034 112.224 147.927 112.373 147.714 112.672C147.671 112.715 147.65 112.779 147.65 112.864C147.693 112.907 147.714 112.971 147.714 113.056ZM147.842 113.376C147.842 113.333 147.821 113.312 147.778 113.312C147.735 113.269 147.714 113.227 147.714 113.184C147.586 113.483 147.458 113.739 147.33 113.952C147.245 114.165 147.159 114.357 147.074 114.528C146.989 114.656 146.946 114.827 146.946 115.04L147.842 113.376ZM163.074 120.224C163.117 120.139 163.415 119.371 163.97 117.92C163.799 118.005 163.65 118.069 163.522 118.112C163.437 118.155 163.351 118.197 163.266 118.24C163.351 117.6 163.415 117.259 163.458 117.216H163.266L163.97 115.424L163.266 114.976C162.797 116 162.562 116.917 162.562 117.728C162.562 118.496 162.733 119.328 163.074 120.224ZM148.994 122.08C148.951 121.696 148.909 121.312 148.866 120.928C148.823 120.544 148.781 120.139 148.738 119.712L148.674 122.208C148.631 122.251 148.631 122.293 148.674 122.336C148.759 122.336 148.823 122.336 148.866 122.336L148.994 122.08ZM186.31 123.872C185.969 123.744 185.563 123.701 185.094 123.744C184.667 123.744 184.369 123.744 184.198 123.744C182.918 123.829 181.915 123.509 181.19 122.784C180.763 122.4 180.55 121.931 180.55 121.376C180.55 120.779 180.785 120.309 181.254 119.968C181.126 120.352 181.062 120.715 181.062 121.056C181.062 121.739 181.297 122.379 181.766 122.976C181.979 123.189 182.342 123.296 182.854 123.296C183.238 123.296 183.558 123.232 183.814 123.104L182.15 122.72V122.592H182.47L182.342 122.208C182.257 122.037 182.107 121.824 181.894 121.568C181.723 121.312 181.617 121.099 181.574 120.928V120.864C181.574 120.693 181.638 120.523 181.766 120.352C181.937 120.139 182.043 119.989 182.086 119.904C182.171 119.733 182.342 119.52 182.598 119.264C182.598 119.264 182.555 119.221 182.47 119.136L181.83 119.456L181.766 119.328L182.278 118.88L184.262 118.112C184.305 118.069 184.347 118.027 184.39 117.984C184.475 117.899 184.539 117.835 184.582 117.792C184.753 117.621 184.881 117.515 184.966 117.472H185.478L186.182 117.408V117.344C186.267 117.344 186.374 117.365 186.502 117.408C186.63 117.408 186.779 117.451 186.95 117.536C187.931 117.835 188.571 118.048 188.87 118.176C189.169 118.304 189.339 118.496 189.382 118.752C189.425 119.008 189.467 119.349 189.51 119.776C189.553 120.203 189.617 120.544 189.702 120.8C189.745 120.928 189.766 121.099 189.766 121.312C189.766 121.995 189.467 122.613 188.87 123.168C188.273 123.723 187.654 124 187.014 124C186.801 124 186.566 123.957 186.31 123.872ZM227.72 126.432C227.165 126.944 226.568 127.2 225.928 127.2C225.501 127.2 224.989 127.072 224.392 126.816C223.794 126.603 223.325 126.453 222.984 126.368C222.813 126.325 222.493 126.24 222.024 126.112C221.597 126.027 221.298 125.877 221.128 125.664C220.829 125.152 220.616 124.555 220.488 123.872C220.402 123.147 220.338 122.699 220.296 122.528C220.168 121.931 220.104 121.355 220.104 120.8C220.104 119.904 220.317 118.475 220.744 116.512C221.128 114.848 221.661 112.352 222.344 109.024C222.386 108.853 222.472 108.555 222.6 108.128C222.728 107.701 222.792 107.296 222.792 106.912L221.384 108.832C220.274 110.283 219.464 111.413 218.952 112.224C217.672 114.187 215.794 117.216 213.32 121.312L212.936 122.144C212.765 122.784 212.338 123.104 211.656 123.104C211.4 123.104 211.144 123.04 210.888 122.912C210.717 122.827 210.461 122.763 210.12 122.72C209.821 122.635 209.608 122.571 209.48 122.528L210.12 121.952C209.906 121.995 209.629 122.059 209.288 122.144C208.946 122.229 208.648 122.272 208.392 122.272C207.41 122.272 206.92 121.909 206.92 121.184C206.92 120.885 207.026 120.48 207.24 119.968C208.178 117.707 208.904 115.68 209.416 113.888C209.842 112.437 210.312 110.56 210.824 108.256C210.952 107.573 211.186 106.549 211.528 105.184L211.592 104.736C211.592 104.651 211.549 104.437 211.464 104.096C210.568 105.419 209.8 106.656 209.16 107.808C207.41 110.752 205.746 113.696 204.168 116.64C203.57 117.664 202.952 118.88 202.312 120.288L201.16 122.592C200.861 123.275 200.477 123.616 200.008 123.616C199.709 123.616 199.389 123.531 199.048 123.36C198.578 123.104 198.301 122.976 198.216 122.976C198.045 122.933 197.874 122.933 197.704 122.976C197.533 122.976 197.362 122.955 197.192 122.912C196.552 122.869 196.082 122.763 195.784 122.592C195.528 122.379 195.4 122.059 195.4 121.632C195.4 121.291 195.464 120.907 195.592 120.48L197.128 114.144L199.816 102.688C199.901 102.475 199.944 102.133 199.944 101.664L199.688 101.472C199.389 101.6 199.09 101.984 198.792 102.624C198.493 103.264 198.301 103.669 198.216 103.84C197.832 104.736 197.49 105.397 197.192 105.824C197.064 106.037 196.85 106.4 196.552 106.912C196.296 107.424 196.082 107.744 195.911 107.872C195.826 107.957 195.677 108 195.464 108C194.952 108 194.461 107.68 193.992 107.04C194.034 106.997 194.056 106.933 194.056 106.848C194.056 106.763 194.013 106.677 193.928 106.592C193.842 106.464 193.842 106.293 193.928 106.08C193.885 106.037 193.757 106.251 193.544 106.72C193.33 107.147 193.181 107.339 193.096 107.296C192.925 107.296 192.69 107.339 192.392 107.424C192.093 107.467 191.901 107.445 191.816 107.36C191.73 107.189 191.688 107.061 191.688 106.976C191.688 106.848 191.816 106.592 192.072 106.208L193.928 104.032L196.808 100.448C197.49 99.552 198.024 98.8907 198.408 98.464C198.834 98.0373 199.261 97.8027 199.688 97.76C201.053 97.5893 202.589 97.504 204.296 97.504C205.32 97.504 205.789 98.08 205.704 99.232L205.32 104.288C205.49 103.989 205.853 103.541 206.408 102.944C206.706 102.517 207.24 101.835 208.008 100.896C208.136 100.725 208.413 100.341 208.84 99.744C209.309 99.104 209.8 98.6347 210.312 98.336C210.824 97.9947 211.4 97.8027 212.04 97.76C212.594 97.7173 213.17 97.7173 213.768 97.76C213.981 97.76 214.237 97.7813 214.536 97.824C214.834 97.824 215.197 97.8027 215.624 97.76C216.349 97.6747 216.84 97.824 217.096 98.208C217.394 98.5493 217.608 99.104 217.736 99.872C217.821 100.213 217.864 100.469 217.864 100.64L217.8 101.792L217.544 104.48L217.608 104.928C217.778 104.843 217.906 104.757 217.992 104.672L219.016 103.328C219.869 102.219 220.338 101.621 220.424 101.536L221.64 100.256L224.072 97.696C224.669 97.0987 225.266 96.8 225.864 96.8C226.12 96.8 226.376 96.864 226.632 96.992C226.674 97.0347 226.781 97.056 226.951 97.056C227.122 97.056 227.293 97.0347 227.464 96.992C227.677 96.9067 227.89 96.864 228.104 96.864C228.616 96.9067 229.426 97.0133 230.536 97.184C230.621 97.2267 230.706 97.312 230.792 97.44C230.877 97.5253 230.92 97.632 230.92 97.76L230.152 101.728C229.682 104.288 229.341 106.037 229.128 106.976L228.744 108.512C228.146 111.115 227.677 113.291 227.336 115.04C227.037 116.789 226.845 118.539 226.76 120.288C226.76 120.331 226.76 120.395 226.76 120.48C226.802 120.565 226.802 120.672 226.76 120.8L227.272 120.416C229.149 117.941 230.536 116.064 231.432 114.784C231.73 114.4 232.072 113.909 232.456 113.312C232.84 112.715 233.138 112.245 233.352 111.904L236.552 106.464C237.149 105.525 237.661 104.821 238.088 104.352C238.002 104.565 237.832 104.885 237.576 105.312C237.533 105.397 237.512 105.483 237.512 105.568C237.554 105.611 237.576 105.675 237.576 105.76C237.789 105.632 237.917 105.547 237.96 105.504C238.13 105.291 238.28 105.077 238.408 104.864C238.536 104.651 238.664 104.437 238.792 104.224C238.749 104.395 238.685 104.629 238.6 104.928C238.557 105.227 238.578 105.461 238.664 105.632L238.728 105.824C238.728 105.995 238.578 106.187 238.28 106.4C237.981 106.613 237.853 106.827 237.896 107.04C237.938 107.424 237.853 107.765 237.64 108.064C237.469 108.363 237.17 108.704 236.744 109.088C236.616 109.259 236.509 109.493 236.424 109.792C236.381 110.048 236.338 110.24 236.296 110.368C236.125 110.752 236.018 110.987 235.976 111.072C236.274 111.371 236.466 111.52 236.552 111.52C236.722 111.52 236.893 111.328 237.064 110.944C237.405 110.304 238.344 108.747 239.88 106.272C239.88 106.229 239.901 106.208 239.944 106.208C239.986 106.208 240.029 106.187 240.072 106.144C240.072 106.357 240.05 106.507 240.008 106.592L238.984 108.576C239.496 108.448 239.901 108.171 240.2 107.744C240.541 107.275 240.69 106.763 240.648 106.208L241.032 106.592C241.074 106.507 241.117 106.421 241.16 106.336C241.245 106.251 241.309 106.165 241.352 106.08C241.821 104.885 242.141 104.16 242.312 103.904C242.354 103.861 242.61 103.776 243.08 103.648L243.336 103.776L242.888 104.352C242.802 104.523 242.76 104.651 242.76 104.736C242.845 105.76 242.504 106.933 241.736 108.256C239.602 112.096 237.938 114.933 236.744 116.768C235.421 118.859 234.162 120.501 232.968 121.696C232.541 122.165 231.474 123.147 229.768 124.64L227.72 126.432ZM204.616 109.088L205.32 107.936C205.789 107.253 206.258 106.464 206.728 105.568C206.898 105.355 207.048 105.077 207.176 104.736C207.346 104.352 207.496 104.032 207.624 103.776L209.288 101.152C209.032 101.408 208.584 101.792 207.944 102.304C207.346 102.816 206.898 103.307 206.6 103.776C206.216 104.416 205.597 105.632 204.744 107.424L204.04 108.96C203.997 109.003 203.997 109.088 204.04 109.216C204.125 109.344 204.168 109.429 204.168 109.472L204.616 109.088ZM196.232 106.208C196.274 106.123 196.317 106.059 196.36 106.016C196.402 105.973 196.445 105.909 196.488 105.824L196.808 104.672L197 104.544L196.936 104.736L197.064 104.992C197.106 104.949 197.128 104.885 197.128 104.8L197.256 104.48L198.6 101.664C198.728 101.536 198.792 101.408 198.792 101.28C198.749 101.323 198.706 101.365 198.664 101.408C198.621 101.451 198.578 101.515 198.536 101.6L198.216 101.92L198.28 101.6V101.408C198.237 101.493 198.13 101.6 197.96 101.728C197.832 101.856 197.725 101.963 197.64 102.048C197.554 102.219 197.49 102.411 197.448 102.624C197.448 102.795 197.426 102.987 197.384 103.2C197.341 103.243 197.32 103.285 197.32 103.328C197.362 103.328 197.384 103.349 197.384 103.392L197.512 103.328C197.682 102.944 197.789 102.709 197.832 102.624C197.832 102.581 197.832 102.539 197.832 102.496C197.874 102.411 197.917 102.389 197.96 102.432L197.896 102.688C197.853 102.773 197.789 102.965 197.704 103.264C197.618 103.563 197.426 103.733 197.128 103.776C197.128 103.819 197.064 103.904 196.936 104.032C196.85 104.203 196.744 104.416 196.616 104.672C196.53 104.928 196.445 105.141 196.36 105.312L196.168 105.824C196.21 105.867 196.232 105.995 196.232 106.208ZM214.216 105.696C214.258 105.312 214.301 104.843 214.344 104.288C214.386 103.691 214.472 103.029 214.6 102.304H214.28L213.832 105.696H214.216ZM216.648 109.28C216.69 109.323 216.754 109.344 216.84 109.344C216.925 109.344 216.989 109.323 217.032 109.28C217.714 108.512 218.205 107.936 218.504 107.552L220.68 104.544L221.704 103.328C221.661 103.285 221.597 103.243 221.512 103.2C221.469 103.157 221.426 103.136 221.384 103.136C221.213 103.221 220.957 103.328 220.616 103.456C220.317 103.541 220.104 103.669 219.976 103.84C219.634 104.181 219.08 104.928 218.312 106.08C218.269 106.123 218.226 106.251 218.184 106.464C218.184 106.635 218.162 106.763 218.12 106.848L216.584 108.896C216.498 109.024 216.52 109.152 216.648 109.28ZM223.688 115.552C223.816 115.296 224.008 114.955 224.264 114.528C224.562 114.059 224.754 113.653 224.84 113.312C224.882 113.141 224.904 112.843 224.904 112.416V111.456C224.904 111.029 224.925 110.709 224.968 110.496C225.096 109.941 225.288 109.323 225.544 108.64L225.992 107.36C226.034 107.232 226.056 107.061 226.056 106.848C226.056 106.592 226.077 106.379 226.12 106.208C226.248 105.824 226.397 105.483 226.568 105.184C226.738 104.843 226.888 104.523 227.016 104.224C227.016 104.139 226.952 104.011 226.824 103.84C226.738 103.669 226.674 103.541 226.632 103.456C226.589 103.584 226.504 103.712 226.376 103.84C226.29 103.968 226.226 104.075 226.184 104.16C226.141 104.416 226.12 104.715 226.12 105.056C226.12 105.355 226.077 105.589 225.992 105.76C225.736 106.187 225.544 106.677 225.416 107.232C225.074 108.256 224.69 108.981 224.264 109.408C224.221 109.451 224.2 109.515 224.2 109.6C224.2 109.643 224.178 109.728 224.136 109.856L224.904 109.152C224.392 111.157 224.157 112.053 224.2 111.84C224.157 112.096 224.029 112.395 223.816 112.736C223.816 112.736 223.688 112.864 223.432 113.12C223.645 113.12 223.794 113.141 223.88 113.184L223.688 115.552ZM213.768 106.976H213.576L213 109.728L213.192 109.792L213.768 106.976ZM235.208 113.632C235.25 113.547 235.122 113.291 234.824 112.864L234.12 113.312C234.162 113.397 234.226 113.547 234.312 113.76C234.397 113.973 234.525 114.08 234.696 114.08C234.781 114.08 234.952 113.931 235.208 113.632ZM233.288 115.808C233.245 115.68 233.16 115.595 233.032 115.552C232.946 115.723 232.562 116.128 231.88 116.768L232.2 117.024L233.288 115.808ZM239.805 125.664C239.378 125.621 238.888 125.515 238.333 125.344C237.821 125.216 237.416 125.109 237.117 125.024L236.989 124.96C236.818 124.747 236.562 124.448 236.221 124.064C235.922 123.723 235.666 123.381 235.453 123.04C235.282 122.699 235.176 122.315 235.133 121.888C235.133 121.675 235.069 121.44 234.941 121.184C234.813 120.928 234.728 120.736 234.685 120.608C234.557 120.309 234.514 120.032 234.557 119.776C234.6 119.563 234.664 119.243 234.749 118.816C234.877 118.347 234.941 117.941 234.941 117.6C234.941 117.216 234.877 116.875 234.749 116.576C234.706 116.533 234.685 116.469 234.685 116.384C234.728 116.299 234.749 116.256 234.749 116.256C234.706 116 234.578 115.893 234.365 115.936C234.194 115.979 233.874 116.107 233.405 116.32C232.936 116.533 232.616 116.576 232.445 116.448L232.189 116.384L232.125 116.192C232.296 116.149 232.594 115.829 233.021 115.232C233.576 114.592 233.917 114.251 234.045 114.208C235.24 113.909 235.986 113.248 236.285 112.224C236.328 111.925 236.434 111.627 236.605 111.328C236.776 111.029 236.904 110.816 236.989 110.688C237.032 110.645 237.074 110.581 237.117 110.496C237.202 110.368 237.224 110.261 237.181 110.176C237.181 110.048 237.096 109.941 236.925 109.856C237.01 109.643 237.117 109.365 237.245 109.024C237.416 108.64 237.608 108.341 237.821 108.128C237.906 108.043 238.056 107.936 238.269 107.808C238.482 107.637 238.546 107.403 238.461 107.104V107.04C238.461 106.741 238.568 106.549 238.781 106.464C238.952 106.336 239.058 106.165 239.101 105.952C239.144 105.739 239.186 105.568 239.229 105.44C239.314 104.928 239.485 104.48 239.741 104.096C239.997 103.669 240.253 103.285 240.509 102.944C240.808 102.56 241 102.304 241.085 102.176C241.64 101.451 241.981 100.939 242.109 100.64C242.834 99.232 243.56 98.2507 244.285 97.696C245.309 96.7573 246.568 95.776 248.061 94.752C248.658 94.3253 249.341 94.112 250.109 94.112C250.578 94.112 251.09 94.2187 251.645 94.432C251.986 94.6027 252.413 95.0293 252.925 95.712C253.309 96.1387 253.501 96.5867 253.501 97.056C253.501 97.3973 253.394 97.7813 253.181 98.208C253.096 98.336 253.053 98.5067 253.053 98.72C253.096 98.9333 253.117 99.0827 253.117 99.168C253.416 99.168 253.629 99.1467 253.757 99.104C253.885 99.0187 253.928 98.848 253.885 98.592C253.885 98.5493 253.928 98.4853 254.013 98.4C254.098 98.3147 254.184 98.2507 254.269 98.208C254.397 98.1227 254.461 98.0373 254.461 97.952C254.461 97.8667 254.397 97.376 254.269 96.48L254.205 96.096C254.418 96.096 254.568 96.1173 254.653 96.16C254.738 96.2453 254.909 96.352 255.165 96.48C255.421 96.608 255.592 96.7573 255.677 96.928C255.805 97.312 255.826 97.7173 255.741 98.144C255.016 100.661 254.098 102.731 252.989 104.352C251.496 106.571 249.981 108.384 248.445 109.792C246.653 111.413 245.33 112.544 244.477 113.184C243.709 113.739 242.984 114.187 242.301 114.528L240.573 115.616C240.274 115.829 240.104 116 240.061 116.128C239.72 117.067 239.549 117.984 239.549 118.88C239.549 119.435 239.656 120.096 239.869 120.864C240.168 121.76 240.53 122.4 240.957 122.784C241.384 123.125 241.96 123.296 242.685 123.296C242.941 123.296 243.368 123.253 243.965 123.168C245.97 122.741 247.954 121.952 249.917 120.8C250.258 120.288 250.898 119.669 251.837 118.944C252.861 118.176 253.65 117.429 254.205 116.704C254.29 116.619 254.44 116.533 254.653 116.448C254.866 116.32 255.016 116.213 255.101 116.128C255.954 115.531 256.509 114.869 256.765 114.144C256.936 114.016 257.085 113.909 257.213 113.824C257.341 113.739 257.448 113.675 257.533 113.632C257.704 113.504 257.853 113.333 257.981 113.12C258.152 112.864 258.28 112.693 258.365 112.608C258.578 112.309 259.026 111.904 259.709 111.392C259.709 111.392 259.73 111.392 259.773 111.392C259.816 111.392 259.816 111.371 259.773 111.328L260.733 109.856C260.818 109.685 260.882 109.579 260.925 109.536C261.608 109.152 262.162 108.619 262.589 107.936C262.717 107.637 263.122 107.147 263.805 106.464L265.789 103.712C265.96 103.456 266.258 103.328 266.685 103.328C266.685 103.328 266.813 103.2 267.069 102.944C267.197 102.731 267.282 102.624 267.325 102.624C267.581 102.539 267.88 102.539 268.221 102.624L268.029 103.2C267.944 103.371 267.858 103.541 267.773 103.712C267.73 103.84 267.666 103.989 267.581 104.16C267.837 104.032 268.029 103.968 268.157 103.968C268.072 104.181 267.922 104.459 267.709 104.8C267.538 105.099 267.41 105.376 267.325 105.632C267.282 105.888 267.282 106.165 267.325 106.464L269.565 105.184C269.266 105.653 269.096 105.995 269.053 106.208C268.968 107.147 268.498 108.107 267.645 109.088C266.834 110.155 266.28 110.859 265.981 111.2L264.445 112.864C263.122 114.315 261.736 115.765 260.285 117.216C257.81 119.605 255.122 121.504 252.221 122.912L250.429 123.808C249.448 124.32 248.616 124.704 247.933 124.96C247.25 125.259 246.461 125.493 245.565 125.664C244.754 125.835 243.88 125.92 242.941 125.92C242.216 125.92 241.17 125.835 239.805 125.664ZM246.077 105.376C246.034 105.419 246.376 105.013 247.101 104.16L248.125 103.008C248.21 102.837 248.296 102.603 248.381 102.304C248.466 101.963 248.552 101.685 248.637 101.472L249.789 98.848C249.874 98.592 249.874 98.336 249.789 98.08C249.746 98.1227 249.682 98.1653 249.597 98.208C249.554 98.2507 249.469 98.2933 249.341 98.336C249.341 98.336 249.298 98.336 249.213 98.336C249.512 97.952 249.704 97.6747 249.789 97.504C249.917 97.3333 249.96 97.184 249.917 97.056L249.405 97.504C248.722 97.8453 247.954 98.3147 247.101 98.912C247.016 98.9547 246.93 99.0187 246.845 99.104C246.76 99.1467 246.738 99.1893 246.781 99.232V99.424C246.781 99.7653 246.632 100.064 246.333 100.32C246.077 100.533 245.906 100.683 245.821 100.768V100.256C245.778 100.256 245.714 100.277 245.629 100.32C245.544 100.363 245.48 100.405 245.437 100.448C245.096 101.131 244.904 101.536 244.861 101.664C244.605 101.664 244.413 101.792 244.285 102.048C244.157 102.261 244.05 102.432 243.965 102.56C243.666 102.773 243.304 103.157 242.877 103.712C242.706 103.925 242.536 104.203 242.365 104.544C242.237 104.843 242.109 105.099 241.981 105.312L241.277 106.528L240.445 108.128C240.36 108.213 240.317 108.299 240.317 108.384C240.36 108.469 240.381 108.533 240.381 108.576C240.466 108.533 240.573 108.512 240.701 108.512C240.872 108.469 240.978 108.427 241.021 108.384C241.32 107.872 241.618 107.253 241.917 106.528C241.96 106.443 242.002 106.315 242.045 106.144C242.13 105.931 242.216 105.76 242.301 105.632C242.386 105.461 242.706 105.099 243.261 104.544L244.157 103.712L244.541 103.072C244.285 102.987 244.221 102.88 244.349 102.752C244.477 102.624 244.562 102.539 244.605 102.496L244.925 101.728L245.245 102.048C245.245 102.048 245.437 101.856 245.821 101.472C245.864 101.429 245.885 101.365 245.885 101.28C245.928 101.195 245.992 101.131 246.077 101.088C246.418 100.875 246.973 100.597 247.741 100.256C247.57 100.512 247.421 100.704 247.293 100.832C246.696 101.472 246.205 102.112 245.821 102.752C245.693 102.923 245.544 103.243 245.373 103.712C245.245 104.181 245.074 104.501 244.861 104.672C244.776 104.757 244.69 104.949 244.605 105.248C244.562 105.504 244.52 105.675 244.477 105.76C243.88 106.741 243.517 107.403 243.389 107.744L242.813 108.832L243.005 108.96L246.077 105.376Z" fill="black"/>
</svg>
